<svg xmlns="http://www.w3.org/2000/svg" viewBox="0 0 64 64" role="img" aria-labelledby="title"><title>Nyendwana Techworks</title><rect width="64" height="64" rx="14" fill="#102B5C"/><path d="M13 49V16l10-4v23l18-19V12l10 4v33l-10 4V30L23 49v4z" fill="#1F4E8C"/><path d="M23 12l18 4v6L23 18zM13 16l10 2v35L13 49z" fill="#315F9F"/><g fill="#F3F0E8"><rect x="27" y="33" width="2.8" height="11" rx="1.4"/><rect x="31" y="29" width="2.8" height="15" rx="1.4"/><rect x="35" y="33" width="2.8" height="11" rx="1.4"/></g><path d="M8 49c12 10 37 9 49-6" fill="none" stroke="#CFA14A" stroke-width="2.7" stroke-linecap="round"/><circle cx="57" cy="42" r="3.7" fill="#CFA14A"/></svg>